# xmcd
#
# Track frame offsets: 
#        150
#        19600
#        38132
#        56620
#        74867
#        90320
#        106907
#        124770
#        137115
#        147962
#        163430
#
# Disc length: 2334 seconds
#
# Revision: 5
# Processed by: cddbd v1.5.1PL0 Copyright (c) Steve Scherf et al.
# Submitted via: ExactAudioCopy v0.95a5
#
DISCID=9e091c0b
DTITLE=Beat Farmers - The Pursuit of Happiness
DYEAR=1987
DGENRE=Country
TTITLE0=Hollywood Hills
TTITLE1=Ridin'
TTITLE2=Dark Light
TTITLE3=Make It Last
TTITLE4=Key To The World
TTITLE5=God Is Here Tonight
TTITLE6=Big Big Man
TTITLE7=Elephant Day Parade
TTITLE8=Rosie
TTITLE9=Texas
TTITLE10=Big River
EXTD=(c)1987 CURB/MCA Records /Intercord Germany\n\nProduced by Dave J
EXTD=erden\n\nKatalog: INT 847.729\nupc 4006758477296
EXTT0=
EXTT1=
EXTT2=
EXTT3=
EXTT4=
EXTT5=
EXTT6=
EXTT7=
EXTT8=
EXTT9=
EXTT10=
PLAYORDER=
